<?xml version="1.0" encoding="UTF-8"?>
<svg version="1.1" xmlns="http://www.w3.org/2000/svg" width="500" height="500">
<path d="M0 0 C0.99 0.33 1.98 0.66 3 1 C3.01981934 1.81041748 3.03963867 2.62083496 3.06005859 3.45581055 C3.13923404 6.52943634 3.22594504 9.60274177 3.31738281 12.67602539 C3.37345245 14.63347355 3.42121922 16.59115401 3.46875 18.54882812 C3.69358009 25.91201358 4.2997026 33.01477478 5.57226562 40.2734375 C6.0917256 43.58469833 6.1553918 46.6590763 6 50 C8.30099489 47.85769441 10.01742088 45.97051851 11.625 43.25 C12.07875 42.5075 12.5325 41.765 13 41 C13.66 41 14.32 41 15 41 C15.226875 40.29875 15.45375 39.5975 15.6875 38.875 C17.33841288 35.25871465 19.2908835 32.91230024 22 30 C22.66 30 23.32 30 24 30 C24.37898438 29.13761719 24.37898438 29.13761719 24.765625 28.2578125 C28.62965331 21.19006452 35.81738364 16.18161206 42.25 11.5625 C42.84006836 11.13759277 43.43013672 10.71268555 44.03808594 10.27490234 C48.24572473 7.33145802 51.79013147 5 57 5 C56.53680089 9.72463088 55.90108294 13.17057052 53 17 C52.34 17 51.68 17 51 17 C50.885354 17.56267578 50.77070801 18.12535156 50.65258789 18.70507812 C49.91853622 21.28647945 48.84784069 23.36493816 47.55859375 25.71875 C47.06109619 26.64083252 46.56359863 27.56291504 46.05102539 28.51293945 C45.51856201 29.49866943 44.98609863 30.48439941 44.4375 31.5 C34.92217367 49.4686806 26.52793777 68.64344852 24 89 C35.60134883 80.88603058 46.31604479 72.07002161 56.07421875 61.80078125 C58 60 58 60 60 60 C60.32677734 59.18789063 60.32677734 59.18789063 60.66015625 58.359375 C62.45717678 55.19494235 64.87691323 52.79389454 67.4375 50.25 C67.92798828 49.74339844 68.41847656 49.23679688 68.92382812 48.71484375 C70.22284961 47.4140692 71.60745123 46.20011632 73 45 C73.99 45 74.98 45 76 45 C75.53120129 51.10117746 74.17672192 55.49914675 71.3125 60.875 C70.94946777 61.57407471 70.58643555 62.27314941 70.21240234 62.9934082 C69.15812516 65.00499883 68.08409946 67.00435489 67 69 C66.50113281 69.92425781 66.00226563 70.84851563 65.48828125 71.80078125 C61.35531272 79.03643676 56.17041789 85.4900514 51 92 C50.28070313 92.95261719 49.56140625 93.90523438 48.8203125 94.88671875 C48.21960938 95.58410156 47.61890625 96.28148437 47 97 C46.34 97 45.68 97 45 97 C44.34 98.32 43.68 99.64 43 101 C42.34 101 41.68 101 41 101 C41 101.66 41 102.32 41 103 C40.34 103 39.68 103 39 103 C39 103.66 39 104.32 39 105 C34.52941176 109 34.52941176 109 32 109 C32 109.66 32 110.32 32 111 C29.20938618 112.79298087 26.37338323 114.48465392 23.50390625 116.1484375 C18.14596634 122.25030354 19.83226085 132.16995937 20.31835938 139.87988281 C20.43920898 141.42434082 20.43920898 141.42434082 20.5625 143 C20.68915039 144.64887207 20.68915039 144.64887207 20.81835938 146.33105469 C22.05418977 160.12338825 24.23636237 175.03911837 29.15234375 188.04980469 C30.05840278 191.2032659 29.91404194 192.89225741 29 196 C23.17913293 195.8820735 17.3584481 195.75784958 11.5378418 195.62768555 C9.55610854 195.58426856 7.57433622 195.54259863 5.5925293 195.50268555 C2.7503683 195.44514617 -0.09159483 195.38140555 -2.93359375 195.31640625 C-3.82525742 195.29969376 -4.71692108 195.28298126 -5.63560486 195.26576233 C-11.88612829 195.11387171 -11.88612829 195.11387171 -13 194 C-15.72681543 182.60787224 -17.1979379 170.77606026 -18.25 159.125 C-18.32984131 158.24175049 -18.40968262 157.35850098 -18.49194336 156.44848633 C-20.75111208 129.0015452 -15.0188643 102.3794448 -5.8046875 76.6640625 C-4.55982542 72.54272298 -5.51462219 69.0628557 -6.484375 64.94140625 C-11.08866933 45.37315534 -11.55332303 20.07600103 -1.37109375 2.12890625 C-0.91863281 1.42636719 -0.46617187 0.72382813 0 0 Z " fill="#252423" transform="translate(218,205)"/>
<path d="M0 0 C0.98973362 3.3175871 1.09812799 6.36103826 1.1875 9.8125 C1.93194531 21.32738793 5.57916562 32.34160544 8.67236328 43.40478516 C12.35191533 56.66583209 14.29482553 68.68187846 7.78125 81.375 C3.25122419 88.82437577 -3.76356997 94.95610195 -12 98 C-17.7006638 98.84454279 -20.84991779 97.30422792 -25.49609375 94.2890625 C-25.99238281 93.86367187 -26.48867188 93.43828125 -27 93 C-27 92.34 -27 91.68 -27 91 C-27.66 91 -28.32 91 -29 91 C-37.35160621 80.67038179 -39.99063856 69.89702413 -38.796875 56.765625 C-35.98774518 38.56734921 -24.43349545 22.91011277 -12 10 C-11.1028125 9.06285156 -10.205625 8.12570313 -9.28125 7.16015625 C-2.29181276 0 -2.29181276 0 0 0 Z " fill="#242322" transform="translate(284,100)"/>
<path d="M0 0 C1.175625 0.144375 2.35125 0.28875 3.5625 0.4375 C13.4501086 1.52030113 23.34417729 2.04372058 33.28515625 2.2109375 C34.48154472 2.23242607 34.48154472 2.23242607 35.70210266 2.25434875 C38.97884026 2.3114472 42.25541321 2.36638427 45.5324707 2.40136719 C61.12738773 2.58077911 76.34635123 3.08893959 88.4375 14.25 C92.15122177 20.78615032 93.75544769 27.32810289 92.62109375 34.8125 C91.34683079 39.30047016 88.53218337 41.10367273 84.65625 43.37109375 C73.9262702 49.07543542 61.94195236 49.70962783 50.25 46.375 C32.50925518 40.2108429 18.47667322 26.11450878 7 11.6875 C6.29617187 10.80735229 6.29617187 10.80735229 5.578125 9.90942383 C3.12010294 6.74426859 1.25929585 3.81366301 0 0 Z " fill="#232221" transform="translate(111,250)"/>
<path d="M0 0 C5.35815783 0.62914606 10.7251832 0.83716667 16.11328125 1.0546875 C17.62631836 1.11946289 17.62631836 1.11946289 19.16992188 1.18554688 C21.630107 1.29048368 24.090373 1.39264451 26.55078125 1.4921875 C26.02473108 6.31311307 24.62896107 9.55313578 22.11328125 13.6796875 C21.49582031 14.70449219 20.87835938 15.72929687 20.2421875 16.78515625 C19.04166859 18.70654102 17.80751267 20.60709036 16.55078125 22.4921875 C15.89078125 22.4921875 15.23078125 22.4921875 14.55078125 22.4921875 C14.55078125 23.1521875 14.55078125 23.8121875 14.55078125 24.4921875 C13.89078125 24.4921875 13.23078125 24.4921875 12.55078125 24.4921875 C12.05578125 25.9771875 12.05578125 25.9771875 11.55078125 27.4921875 C-0.49777517 38.3982084 -14.94243684 45.12026102 -31.38671875 44.4296875 C-41.58702309 43.28298662 -52.38910139 38.90738295 -60.44921875 32.4921875 C-62.40504623 29.45728279 -62.70689917 27.95514728 -62.0859375 24.4296875 C-60.33839512 18.25432303 -57.01089163 10.53015006 -51.2578125 7.23828125 C-50.66097656 6.99207031 -50.06414062 6.74585938 -49.44921875 6.4921875 C-49.44921875 5.8321875 -49.44921875 5.1721875 -49.44921875 4.4921875 C-33.58829381 -2.88332162 -17.01191163 -2.03107415 0 0 Z " fill="#232321" transform="translate(362.44921875,220.5078125)"/>
<path d="M0 0 C0.94447998 -0.00314209 1.88895996 -0.00628418 2.86206055 -0.00952148 C11.95790527 0.13734043 20.61864281 1.76625888 29.51000977 3.57714844 C38.45101036 5.38152844 47.13952989 6.29615279 56.25 6.4375 C55.72903395 10.88574859 54.12794815 13.31342224 51.3125 16.75 C50.60222656 17.63300781 49.89195312 18.51601563 49.16015625 19.42578125 C48.52980469 20.08964844 47.89945312 20.75351562 47.25 21.4375 C46.59 21.4375 45.93 21.4375 45.25 21.4375 C45.25 22.0975 45.25 22.7575 45.25 23.4375 C44.59 23.4375 43.93 23.4375 43.25 23.4375 C43.25 24.0975 43.25 24.7575 43.25 25.4375 C38.04899028 30.76353399 31.78445925 34.44686589 25.1875 37.75 C24.53974609 38.07500488 23.89199219 38.40000977 23.22460938 38.73486328 C15.17341588 42.62519675 7.87484916 44.98921362 -1.125 44.875 C-1.95281982 44.86887695 -2.78063965 44.86275391 -3.63354492 44.85644531 C-12.68891191 44.62609648 -20.65188722 42.19272658 -27.75 36.4375 C-27.75 35.7775 -27.75 35.1175 -27.75 34.4375 C-28.41 34.4375 -29.07 34.4375 -29.75 34.4375 C-35.82260726 24.87314356 -35.82260726 24.87314356 -34.75 18.4375 C-31.1084761 10.31410053 -24.8978081 5.71667057 -16.75 2.4375 C-11.07420339 0.47741123 -5.94173319 0.0167525 0 0 Z " fill="#232321" transform="translate(305.75,284.5625)"/>
<path d="M0 0 C3.8929277 1.29764257 4.02773898 2.53576227 5.875 6.125 C8.85669675 11.44540605 12.24808859 15.83887393 16.3125 20.375 C24.82359521 29.92472073 33.1226215 39.5875116 37 52 C37.33 52.99 37.66 53.98 38 55 C38.27353832 57.93270806 38.27719904 60.8683996 38.3125 63.8125 C38.34150391 64.60720703 38.37050781 65.40191406 38.40039062 66.22070312 C38.45891242 71.66323036 37.57816865 74.66080295 34 79 C30.69358536 82.30641464 27.61393838 82.76930308 23 83 C12.17204005 81.25355485 4.39714842 75.85423497 -2 67 C-3.72448773 64.09255574 -4.92909978 61.20235379 -6 58 C-6.29777344 57.12988281 -6.59554687 56.25976562 -6.90234375 55.36328125 C-12.46978942 36.55711685 -8.14948544 17.33435632 0 0 Z " fill="#252423" transform="translate(186,118)"/>
<path d="M0 0 C0.66 0.33 1.32 0.66 2 1 C0.38683323 9.98389622 -1.76915086 17.90023276 -6 26 C-6.64001953 27.23943359 -6.64001953 27.23943359 -7.29296875 28.50390625 C-11.76866988 36.86313882 -17.01644755 42.69329996 -25.375 47.3125 C-32.01736499 49.05216702 -38.60217947 49.94299744 -45 47 C-48.84215918 43.25635773 -49.2679952 40.03640787 -49.375 34.875 C-49.32574 31.00316438 -48.99925556 28.3427553 -47 25 C-46.34 25 -45.68 25 -45 25 C-45 24.34 -45 23.68 -45 23 C-37.24730129 16.97326706 -28.37534829 13.28312208 -19.24511719 9.87841797 C-12.37170928 7.29163681 -6.11291752 4.07527834 0 0 Z " fill="#272725" transform="translate(356,154)"/>
<path d="M0 0 C3.91248474 0.62605939 7.8225312 1.26557473 11.73095703 1.91650391 C13.69843599 2.2414829 15.66756454 2.55642489 17.63671875 2.87109375 C40.90496556 6.76882037 40.90496556 6.76882037 49 16 C52.12835733 20.39925249 52.60061137 24.50318874 52.40234375 29.79296875 C52 32 52 32 50.0625 34 C48.5465625 34.495 48.5465625 34.495 47 35 C46.37996094 35.21140625 45.75992188 35.4228125 45.12109375 35.640625 C36.0325573 38.25169624 26.97265544 37.44795142 18.6875 32.9375 C17.11070394 31.98152521 15.54229977 31.01068542 14 30 C14 29.34 14 28.68 14 28 C13.34 28 12.68 28 12 28 C12 27.34 12 26.68 12 26 C11.34 26 10.68 26 10 26 C4.01263191 19.46698506 0.65027665 11.65181803 -1 3 C-0.67 2.01 -0.34 1.02 0 0 Z " fill="#272625" transform="translate(133,198)"/>
<path d="M0 0 C-0.45204489 6.3716804 -2.06033656 10.90010964 -5.0625 16.5 C-5.62807617 17.59054687 -5.62807617 17.59054687 -6.20507812 18.703125 C-7.12572954 20.47450493 -8.06132136 22.23810661 -9 24 C-9.99 23.34 -10.98 22.68 -12 22 C-12.3125 19 -12.3125 19 -12 16 C-11.34 15.34 -10.68 14.68 -10 14 C-10.185625 13.401875 -10.37125 12.80375 -10.5625 12.1875 C-11 10 -11 10 -9.875 7.5625 C-4.34146341 0 -4.34146341 0 0 0 Z " fill="#323030" transform="translate(294,250)"/>
<path d="M0 0 C-0.17348027 5.29114824 -0.17348027 5.29114824 -1 8 C-3.96692415 10.17574437 -5.68313868 11.17327123 -9.375 10.6875 C-9.91125 10.460625 -10.4475 10.23375 -11 10 C-5.57142857 0 -5.57142857 0 0 0 Z " fill="#262526" transform="translate(294,250)"/>
<path d="M0 0 C0.99 0 1.98 0 3 0 C3 0.66 3 1.32 3 2 C3.66 2 4.32 2 5 2 C5 4.64 5 7.28 5 10 C3.35 10.66 1.7 11.32 0 12 C-0.95595724 7.6981924 -1.42543615 4.27630845 0 0 Z " fill="#1A1A19" transform="translate(179,219)"/>
<path d="M0 0 C0.66 0.33 1.32 0.66 2 1 C1.67 1.66 1.34 2.32 1 3 C0.01 3.33 -0.98 3.66 -2 4 C-2.474375 4.825 -2.94875 5.65 -3.4375 6.5 C-5 9 -5 9 -7.125 9.6875 C-7.74375 9.790625 -8.3625 9.89375 -9 10 C-9.33 10.66 -9.66 11.32 -10 12 C-10.66 12 -11.32 12 -12 12 C-12 10.35 -12 8.7 -12 7 C-11.38511719 6.66226563 -10.77023437 6.32453125 -10.13671875 5.9765625 C-9.32847656 5.53054687 -8.52023437 5.08453125 -7.6875 4.625 C-6.88699219 4.18414062 -6.08648437 3.74328125 -5.26171875 3.2890625 C-3.46472057 2.26486665 -1.72099292 1.14732862 0 0 Z " fill="#4D4C4C" transform="translate(356,154)"/>
<path d="M0 0 C1.65 0.33 3.3 0.66 5 1 C3.02 4.96 1.04 8.92 -1 13 C-3 9 -3 9 -4 6 C-3.34 6 -2.68 6 -2 6 C-2 5.01 -2 4.02 -2 3 C-1.34 3 -0.68 3 0 3 C0 2.01 0 1.02 0 0 Z " fill="#3E3E3D" transform="translate(262,226)"/>
<path d="M0 0 C-1.5625 2.5 -1.5625 2.5 -4 5 C-7.5 5.1875 -7.5 5.1875 -11 5 C-13.35369807 5.88064927 -13.35369807 5.88064927 -15 7 C-9.87675926 1.7382933 -7.47754677 -0.28217158 0 0 Z " fill="#454243" transform="translate(291,289)"/>
<path d="M0 0 C2.97 0.33 5.94 0.66 9 1 C8.01 1.33 7.02 1.66 6 2 C6.66 2.33 7.32 2.66 8 3 C7 6 7 6 5 9 C4.16094435 7.87926138 3.32892169 6.75325453 2.5 5.625 C2.0359375 4.99851563 1.571875 4.37203125 1.09375 3.7265625 C0 2 0 2 0 0 Z " fill="#666567" transform="translate(111,250)"/>
<path d="M0 0 C-0.33 2.64 -0.66 5.28 -1 8 C-1.66 7.34 -2.32 6.68 -3 6 C-4.31747324 5.30251417 -5.64914193 4.63040043 -7 4 C-3.375 0 -3.375 0 0 0 Z " fill="#4B494A" transform="translate(294,250)"/>
<path d="M0 0 C2.80045623 3.14591933 3.35261589 5.067064 3.1875 9.25 C3.16042969 10.14203125 3.13335937 11.0340625 3.10546875 11.953125 C3.07066406 12.62859375 3.03585938 13.3040625 3 14 C1.02 14.99 1.02 14.99 -1 16 C-0.67 15.01 -0.34 14.02 0 13 C0.66 13 1.32 13 2 13 C2 10.36 2 7.72 2 5 C1.34 5 0.68 5 0 5 C0 4.34 0 3.68 0 3 C-0.66 2.67 -1.32 2.34 -2 2 C-1.34 1.34 -0.68 0.68 0 0 Z " fill="#5F5F5F" transform="translate(182,216)"/>
<path d="M0 0 C1.32 0.66 2.64 1.32 4 2 C3.67 2.66 3.34 3.32 3 4 C0.4375 4.625 0.4375 4.625 -2 5 C-2.33 7.97 -2.66 10.94 -3 14 C-3.33 14 -3.66 14 -4 14 C-4.49940808 7.88225104 -3.24900602 4.97504047 0 0 Z " fill="#585757" transform="translate(275,296)"/>
<path d="M0 0 C1.67542976 0.28604898 3.34385343 0.61781233 5 1 C4.6875 2.9375 4.6875 2.9375 4 5 C3.01 5.33 2.02 5.66 1 6 C0.34 4.35 -0.32 2.7 -1 1 C-0.67 0.67 -0.34 0.34 0 0 Z " fill="#353433" transform="translate(370,243)"/>
<path d="M0 0 C2.29633824 3.44450737 2.54016485 5.93812283 3 10 C1.68 10.33 0.36 10.66 -1 11 C-1 9.68 -1 8.36 -1 7 C-0.34 7 0.32 7 1 7 C0.67 4.69 0.34 2.38 0 0 Z " fill="#5D5C5D" transform="translate(245,390)"/>
<path d="M0 0 C0.33 0.99 0.66 1.98 1 3 C0.071875 3.4021875 0.071875 3.4021875 -0.875 3.8125 C-3.2995233 4.95556848 -3.2995233 4.95556848 -5 8 C-7.625 8.6875 -7.625 8.6875 -10 9 C-6.83047153 5.73991357 -3.60062011 2.77762123 0 0 Z " fill="#6B696A" transform="translate(258,282)"/>
<path d="M0 0 C2.125 0.375 2.125 0.375 4 1 C3.67 1.66 3.34 2.32 3 3 C2.34 3 1.68 3 1 3 C0.34 4.32 -0.32 5.64 -1 7 C-1.33 7 -1.66 7 -2 7 C-2.125 4.625 -2.125 4.625 -2 2 C-1.34 1.34 -0.68 0.68 0 0 Z " fill="#504B4F" transform="translate(262,299)"/>
<path d="M0 0 C0.144375 0.61875 0.28875 1.2375 0.4375 1.875 C0.93152225 4.03258322 0.93152225 4.03258322 2 6 C-4.625 5.25 -4.625 5.25 -8 3 C-6.8553125 3.0309375 -6.8553125 3.0309375 -5.6875 3.0625 C-2.89814214 3.12942841 -2.89814214 3.12942841 0 2 C0 1.34 0 0.68 0 0 Z " fill="#515050" transform="translate(165,291)"/>
<path d="M0 0 C0.103125 0.639375 0.20625 1.27875 0.3125 1.9375 C0.539375 2.618125 0.76625 3.29875 1 4 C1.99 4.33 2.98 4.66 4 5 C-1.53846154 4.38461538 -1.53846154 4.38461538 -3.875 2.4375 C-4.24625 1.963125 -4.6175 1.48875 -5 1 C-2 0 -2 0 0 0 Z " fill="#575456" transform="translate(158,229)"/>
<path d="M0 0 C0.66 0.33 1.32 0.66 2 1 C2.33 1.99 2.66 2.98 3 4 C1.02 4.99 -0.96 5.98 -3 7 C-3.33 5.68 -3.66 4.36 -4 3 C-2.68 2.01 -1.36 1.02 0 0 Z " fill="#464344" transform="translate(261,216)"/>
<path d="M0 0 C3.00617269 3.00617269 2.59585316 5.82381598 3 10 C2.01 9.34 1.02 8.68 0 8 C0 7.34 0 6.68 0 6 C-0.66 5.67 -1.32 5.34 -2 5 C-1.34 3.35 -0.68 1.7 0 0 Z " fill="#52514F" transform="translate(291,141)"/>
<path d="M0 0 C1.32 1.32 2.64 2.64 4 4 C2.68 4.99 1.36 5.98 0 7 C-0.66 6.67 -1.32 6.34 -2 6 C-1.34 4.02 -0.68 2.04 0 0 Z " fill="#444442" transform="translate(206,144)"/>
<path d="M0 0 C1.32 0.33 2.64 0.66 4 1 C3.67 1.66 3.34 2.32 3 3 C2.34 3 1.68 3 1 3 C0.67 3.99 0.34 4.98 0 6 C-0.66 5.67 -1.32 5.34 -2 5 C-1.34 3.35 -0.68 1.7 0 0 Z " fill="#1D1C1A" transform="translate(228,253)"/>
<path d="M0 0 C0.33 0 0.66 0 1 0 C1 3.3 1 6.6 1 10 C0.01 10 -0.98 10 -2 10 C-1.34 6.7 -0.68 3.4 0 0 Z " fill="#414040" transform="translate(221,235)"/>
<path d="M0 0 C0.66 0.33 1.32 0.66 2 1 C1.2884375 1.6496875 1.2884375 1.6496875 0.5625 2.3125 C-1.23686957 4.02309613 -1.23686957 4.02309613 -2 7 C-2.99 7 -3.98 7 -5 7 C-5 7.66 -5 8.32 -5 9 C-5.66 8.67 -6.32 8.34 -7 8 C-5.38405168 5.95880212 -3.7143618 3.95927063 -2 2 C-1.34 2 -0.68 2 0 2 C0 1.34 0 0.68 0 0 Z " fill="#706E6F" transform="translate(313,225)"/>
<path d="M0 0 C2.475 0.495 2.475 0.495 5 1 C4.34 2.98 3.68 4.96 3 7 C1.79371992 4.66785852 0.8345262 2.50357861 0 0 Z " fill="#4A4947" transform="translate(258,232)"/>
<path d="M0 0 C5.75 0.875 5.75 0.875 8 2 C7.67 2.66 7.34 3.32 7 4 C6.01 4.33 5.02 4.66 4 5 C4 4.34 4 3.68 4 3 C3.34 3 2.68 3 2 3 C2 2.34 2 1.68 2 1 C1.34 0.67 0.68 0.34 0 0 Z " fill="#5D585C" transform="translate(143,223)"/>
<path d="M0 0 C0.66 0 1.32 0 2 0 C2.33 2.31 2.66 4.62 3 7 C2.34 6.67 1.68 6.34 1 6 C0.67 6.33 0.34 6.66 0 7 C-0.66 6.01 -1.32 5.02 -2 4 C-1.01 3.67 -0.02 3.34 1 3 C0.67 2.01 0.34 1.02 0 0 Z " fill="#191718" transform="translate(243,390)"/>
<path d="M0 0 C0.66 0.33 1.32 0.66 2 1 C0.515 3.475 0.515 3.475 -1 6 C-1.99 5.67 -2.98 5.34 -4 5 C-3 2 -3 2 0 0 Z " fill="#1A191A" transform="translate(247,292)"/>
<path d="M0 0 C7.75 0.75 7.75 0.75 10 3 C9.01 3.33 8.02 3.66 7 4 C7 3.34 7 2.68 7 2 C5.02 2.99 5.02 2.99 3 4 C3 3.01 3 2.02 3 1 C2.01 0.67 1.02 0.34 0 0 Z " fill="#6A6869" transform="translate(179,255)"/>
</svg>
