<?xml version="1.0" encoding="UTF-8"?>
<svg version="1.1" xmlns="http://www.w3.org/2000/svg" width="1024" height="1024">
<path d="M0 0 C337.92 0 675.84 0 1024 0 C1024 337.92 1024 675.84 1024 1024 C686.08 1024 348.16 1024 0 1024 C0 686.08 0 348.16 0 0 Z " fill="#FEFEFE" transform="translate(0,0)"/>
<path d="M0 0 C0.99 0 1.98 0 3 0 C3.029729 1.32499512 3.029729 1.32499512 3.06005859 2.67675781 C3.76939217 32.98607215 5.11424904 62.70768106 11.32348633 92.47338867 C11.53900146 93.51599854 11.7545166 94.5586084 11.9765625 95.6328125 C12.17330566 96.57012207 12.37004883 97.50743164 12.57275391 98.47314453 C13 101 13 101 13 105 C13.66 105 14.32 105 15 105 C15.27239502 104.26426758 15.54479004 103.52853516 15.82543945 102.77050781 C16.93981054 100.14197256 18.18047653 98.01857257 19.79296875 95.671875 C20.34146484 94.87136719 20.88996094 94.07085938 21.45507812 93.24609375 C22.02677734 92.42238281 22.59847656 91.59867188 23.1875 90.75 C23.73986328 89.94175781 24.29222656 89.13351562 24.86132812 88.30078125 C34.05495543 74.953471 44.52212678 62.65255067 55.5 50.75 C56.09949463 50.09370605 56.69898926 49.43741211 57.31665039 48.76123047 C57.88246826 48.15424316 58.44828613 47.54725586 59.03125 46.921875 C59.53205078 46.38143555 60.03285156 45.84099609 60.54882812 45.28417969 C62 44 62 44 65 43 C65 42.34 65 41.68 65 41 C67.45989854 38.45328151 70.28966008 36.27467477 73 34 C73.90621094 33.20722656 74.81242188 32.41445313 75.74609375 31.59765625 C82.76847608 25.54516471 89.95471399 20.65269553 98 16 C99.08861328 15.3503125 99.08861328 15.3503125 100.19921875 14.6875 C105.18055838 11.74840157 109.13441002 9.66482343 115 10 C115 16.94292457 112.37547166 21.08758722 108.65625 26.828125 C105.18953799 32.19120456 102.01937879 37.72921221 98.8125 43.25 C98.21864502 44.26771484 97.62479004 45.28542969 97.01293945 46.33398438 C93.98476729 51.534587 90.99804916 56.75351155 88.09301758 62.02392578 C87.13843574 63.74972104 86.16276208 65.46381597 85.18359375 67.17578125 C70.54893161 93.46578952 59.62229135 122.86535934 52.47143555 152.08129883 C52.00873072 153.96446673 51.52215904 155.841719 51.03515625 157.71875 C48.62504917 167.08816228 46.67241937 176.47227751 45 186 C56.35843149 177.7770464 67.4819472 169.36124173 78.28076172 160.41503906 C79.81171112 159.15497335 81.35980647 157.91580531 82.91015625 156.6796875 C88.08073931 152.55235905 93.00878504 148.22192497 97.83984375 143.70703125 C98.48949097 143.09999359 99.13913818 142.49295593 99.80847168 141.86752319 C106.66773077 135.42313368 113.34766361 128.80384095 119.99169922 122.13867188 C122.023262 120.10167579 124.06021836 118.07018049 126.09765625 116.0390625 C127.41959207 114.71646683 128.74121817 113.39356151 130.0625 112.0703125 C130.65740234 111.47743439 131.25230469 110.88455627 131.86523438 110.27371216 C135.56446799 106.55408219 139.06447161 102.70764999 142.4818573 98.7272644 C144.29994052 96.65874316 146.23103619 94.80198871 148.3125 93 C149.29669922 92.13375 149.29669922 92.13375 150.30078125 91.25 C152 90 152 90 154 90 C154.44235594 96.20132949 152.95741145 100.8252072 150.6875 106.5625 C150.33139648 107.47435059 149.97529297 108.38620117 149.60839844 109.32568359 C129.04013352 160.72878118 90.77429928 204.74835087 46.0625 236.875 C45.18537354 237.5088562 45.18537354 237.5088562 44.29052734 238.15551758 C40.2549519 241 40.2549519 241 38 241 C38.65174402 279.84247099 38.65174402 279.84247099 43.50317383 318.30688477 C44.05331164 321.28898317 44.50506734 324.27767633 44.94921875 327.27734375 C46.0312201 334.41518132 47.38986054 341.48554539 48.8125 348.5625 C48.94250397 349.21075745 49.07250793 349.85901489 49.20645142 350.5269165 C50.88037757 358.84638693 52.64346808 367.1377023 54.6875 375.375 C54.87739502 376.14529541 55.06729004 376.91559082 55.26293945 377.70922852 C56.35717629 381.97718054 57.7023057 386.00730744 59.42504883 390.06494141 C60 392 60 392 60 397 C32.28 397 4.56 397 -24 397 C-30.14524046 369.96094197 -30.14524046 369.96094197 -32.1875 358.0625 C-32.31384827 357.32841919 -32.44019653 356.59433838 -32.57037354 355.8380127 C-35.21045311 340.27390494 -36.53103052 324.78863907 -37 309 C-37.03851074 307.74300293 -37.07702148 306.48600586 -37.11669922 305.19091797 C-37.79277122 278.87792676 -36.40670839 251.82713855 -31 226 C-30.84917969 225.27538574 -30.69835937 224.55077148 -30.54296875 223.80419922 C-29.5787565 219.23496981 -28.54683112 214.68421623 -27.48535156 210.13671875 C-27.0411183 208.18101979 -26.63943897 206.21578048 -26.2421875 204.25 C-24.06829903 193.95041192 -20.82922104 184.03567695 -17.5 174.0625 C-17.2607077 173.34440155 -17.02141541 172.6263031 -16.77487183 171.88644409 C-16.07328847 169.7885855 -15.36654581 167.69258013 -14.65625 165.59765625 C-14.43046768 164.93066208 -14.20468536 164.26366791 -13.97206116 163.57646179 C-12.40393198 159.00980644 -10.62664803 154.58298395 -8.58398438 150.20874023 C-7.36915596 145.61402757 -9.25065245 140.73943906 -10.33984375 136.21875 C-10.59830078 135.12820313 -10.85675781 134.03765625 -11.12304688 132.9140625 C-11.65875236 130.66846734 -12.19772384 128.42364836 -12.74023438 126.1796875 C-16.34487035 110.90247102 -17.40923027 96.25963676 -17.375 80.625 C-17.37412384 79.64923004 -17.37324768 78.67346008 -17.37234497 77.66812134 C-17.32820638 62.76714619 -16.76379423 48.49679736 -13 34 C-12.7426709 33.00226563 -12.4853418 32.00453125 -12.22021484 30.9765625 C-9.32817296 20.10641563 -6.30181387 9.44117902 0 0 Z " fill="#1E1E1C" transform="translate(447,422)"/>
<path d="M0 0 C0.05607422 1.89105469 0.05607422 1.89105469 0.11328125 3.8203125 C1.08254196 31.31810603 5.53447646 58.23208619 15.5234375 83.9609375 C17.20720338 88.39005712 18.39525094 92.91201158 19.5625 97.5 C19.77068359 98.30308594 19.97886719 99.10617187 20.19335938 99.93359375 C20.60650177 101.5317684 21.01411931 103.13138215 21.41601562 104.73242188 C21.78149017 106.15153874 22.16762741 107.56567245 22.58398438 108.97070312 C27.80935802 127.23141746 24.27337581 148.41313578 15.20068359 164.76635742 C5.33100895 181.65582124 -9.85632992 194.88709433 -29 200 C-34.19257187 201.21029871 -37.54858726 200.01010646 -42.125 197.375 C-54.44872728 188.8563735 -63.42059017 178.37709393 -70 165 C-70.50370117 164.05942749 -70.50370117 164.05942749 -71.01757812 163.09985352 C-80.15428011 145.7905496 -80.18805612 124.48376268 -75 106 C-74.67128906 104.7625 -74.34257812 103.525 -74.00390625 102.25 C-63.61986715 65.08974183 -36.98281673 35.9562687 -10.375 9.25 C-9.47273682 8.34306396 -8.57047363 7.43612793 -7.64086914 6.50170898 C-6.7977417 5.66067627 -5.95461426 4.81964355 -5.0859375 3.953125 C-4.3232959 3.19161133 -3.5606543 2.43009766 -2.77490234 1.64550781 C-1 0 -1 0 0 0 Z " fill="#1E1E1C" transform="translate(581,205)"/>
<path d="M0 0 C0.58265625 0.19335938 1.1653125 0.38671875 1.765625 0.5859375 C17.96440033 5.73083155 34.62395613 6.1297106 51.47063255 6.16866493 C53.9954169 6.17600645 56.52002563 6.19179933 59.04475403 6.21000671 C66.21397322 6.26163602 73.38308955 6.31022581 80.55249023 6.32592773 C153.7548406 6.51115945 153.7548406 6.51115945 175.80859375 27.64453125 C184.9399946 37.45956639 187.51575589 47.04649768 187.3125 60.25 C187.31572266 61.3121875 187.31894531 62.374375 187.32226562 63.46875 C187.24678519 74.39282822 187.24678519 74.39282822 183.44140625 78.80859375 C178.05967018 83.47425683 172.3530959 86.81491295 166 90 C165.39446289 90.32532715 164.78892578 90.6506543 164.16503906 90.98583984 C146.25670714 100.41381762 124.98468167 100.16863991 105.95263672 94.69555664 C97.4517737 92.04234873 89.7308523 88.37517651 82 84 C80.91203125 83.41089844 79.8240625 82.82179688 78.703125 82.21484375 C71.89083533 78.41967222 65.93152163 74.04351766 60 69 C58.89618301 68.08161081 57.79199405 67.16366857 56.6875 66.24609375 C45.94065524 57.25046542 35.9878632 47.81807445 27.26171875 36.8203125 C25.26737012 34.33340454 23.20941795 31.91919888 21.11694336 29.51489258 C16.06365598 23.68362096 11.40232257 17.62347926 6.875 11.375 C6.30620117 10.5924585 5.73740234 9.80991699 5.15136719 9.00366211 C1.12791711 3.38375134 1.12791711 3.38375134 0 0 Z " fill="#1E1E1C" transform="translate(228,512)"/>
<path d="M0 0 C1.38120529 0.00581589 1.38120529 0.00581589 2.79031372 0.01174927 C18.78498009 0.08955515 34.55657455 1.32423584 50.45361328 2.99707031 C67.68408677 4.79101327 84.87245198 5.313002 102.1875 5.5 C101.37927614 10.08140739 99.72878483 13.87907715 97.625 18 C97.26784912 18.70342529 96.91069824 19.40685059 96.54272461 20.1315918 C90.87277618 31.1419128 84.41106029 41.19201418 76.1875 50.5 C75.64867187 51.11101562 75.10984375 51.72203125 74.5546875 52.3515625 C57.10209271 70.85657507 28.02838231 88.43065348 2.0847168 89.64526367 C-1.65194694 89.66986961 -5.38824914 89.68565469 -9.125 89.6875 C-11.06536133 89.70586914 -11.06536133 89.70586914 -13.04492188 89.72460938 C-19.68176876 89.73479379 -25.48808843 89.54284091 -31.8125 87.5 C-33.56626953 86.94505859 -33.56626953 86.94505859 -35.35546875 86.37890625 C-43.44143625 83.45825132 -51.15177582 80.0319356 -58.8125 76.125 C-60.11997192 75.47446655 -60.11997192 75.47446655 -61.45385742 74.81079102 C-67.50149604 71.64171008 -72.6329054 67.9722953 -76.8125 62.5 C-79.50111409 53.7961815 -75.33219954 43.79866076 -71.59765625 35.9453125 C-67.49109383 28.49398475 -61.73772214 22.52121249 -55.8125 16.5 C-55.21566406 15.87867188 -54.61882813 15.25734375 -54.00390625 14.6171875 C-39.91305966 1.19398701 -18.32752164 -0.20824601 0 0 Z " fill="#1E1E1C" transform="translate(693.8125,450.5)"/>
<path d="M0 0 C0.95424866 0.1721553 1.90849731 0.34431061 2.8916626 0.52168274 C4.68856053 0.84643154 6.48524705 1.17235323 8.28167725 1.49967957 C14.97797108 2.7111 21.58484097 3.79974974 28.3984375 4.046875 C29.50380859 4.08876953 30.60917969 4.13066406 31.74804688 4.17382812 C32.88177734 4.21314453 34.01550781 4.25246094 35.18359375 4.29296875 C36.34439453 4.33615234 37.50519531 4.37933594 38.70117188 4.42382812 C41.54937607 4.52931717 44.39765904 4.6314343 47.24609375 4.73046875 C45.57957833 9.18788985 43.27179185 12.60449801 40.30859375 16.29296875 C39.82350342 16.90285645 39.33841309 17.51274414 38.83862305 18.14111328 C33.91264087 24.26384785 28.66129579 30.04034107 23.24609375 35.73046875 C22.59382812 36.43558594 21.9415625 37.14070312 21.26953125 37.8671875 C0.18140791 59.98728283 -32.88163011 78.9926923 -63.90625 79.93359375 C-87.93317121 80.26128072 -107.72423788 76.43335714 -126.06640625 59.609375 C-132.77997795 52.67964663 -137.96687373 43.78684274 -138.37890625 33.98046875 C-137.76806562 24.62782006 -133.21263484 18.20299804 -126.75390625 11.73046875 C-126.25375 11.21871094 -125.75359375 10.70695313 -125.23828125 10.1796875 C-115.81970257 1.35571606 -104.13138244 -3.38748674 -91.75390625 -6.26953125 C-90.68011719 -6.56730469 -89.60632813 -6.86507812 -88.5 -7.171875 C-59.86988899 -14.50686212 -28.33646372 -5.11611198 0 0 Z " fill="#1E1E1C" transform="translate(693.75390625,593.26953125)"/>
<path d="M0 0 C0.66 0 1.32 0 2 0 C2.51046875 0.969375 3.0209375 1.93875 3.546875 2.9375 C9.15864402 13.36892738 15.64292492 22.73048908 23 32 C23.81984375 33.03382813 24.6396875 34.06765625 25.484375 35.1328125 C29.66481633 40.30791056 34.00193046 45.28469819 38.56640625 50.125 C40 52 40 52 40 55 C40.5465625 55.19722656 41.093125 55.39445312 41.65625 55.59765625 C44.9930763 57.59419066 47.12797727 60.42177573 49.5 63.4375 C50.01900879 64.09709717 50.53801758 64.75669434 51.07275391 65.4362793 C61.56057199 79.02815067 69.5464551 92.35329414 74 109 C74.556875 110.83884766 74.556875 110.83884766 75.125 112.71484375 C76.503902 118.35838397 76.36839705 124.09741507 76.375 129.875 C76.39949219 130.99519531 76.42398438 132.11539063 76.44921875 133.26953125 C76.48370955 143.12240374 74.15442707 151.16709281 68 159 C60.81136229 165.45134154 54.91353407 167.39655088 45.41015625 167.26953125 C29.51419338 166.0131493 15.61080421 157.42602828 5.01953125 145.83203125 C-10.94812261 126.89939717 -18.65854706 103.44781718 -18.28125 78.85571289 C-18.24985028 76.80271093 -18.24022671 74.75048543 -18.234375 72.69726562 C-18.17244834 61.78559196 -18.01416964 51.01497258 -14.875 40.5 C-14.65908203 39.75226318 -14.44316406 39.00452637 -14.22070312 38.23413086 C-10.37513476 25.20147813 -6.06412522 12.18414099 0 0 Z " fill="#1E1E1C" transform="translate(382,243)"/>
<path d="M0 0 C-1.35204182 10.37342434 -4.71375303 20.11643169 -8 30 C-8.33 31.02480469 -8.66 32.04960937 -9 33.10546875 C-16.66619516 55.72758929 -30.44584088 79.48692477 -52 91 C-65.42706354 97.62624859 -78.39151335 99.28179781 -93 95 C-96.27874501 93.3606275 -97.11354191 89.83959569 -98.5625 86.625 C-98.87896484 85.93921875 -99.19542969 85.2534375 -99.52148438 84.546875 C-103.2975252 76.30532517 -104.80985035 68.02201326 -102.12890625 59.1015625 C-91.26735785 35.95400033 -59.29828472 26.65738054 -37.42871094 17.97973633 C-19.75048825 11.18239479 -19.75048825 11.18239479 -3.75 1.25 C-2 0 -2 0 0 0 Z " fill="#1F1F1D" transform="translate(732,317)"/>
<path d="M0 0 C6.79086843 0.63251692 13.28411932 1.83772451 19.9375 3.3125 C28.79777775 5.2305401 37.65337211 6.76782048 46.625 8.0625 C55.70412725 9.39263111 64.3088314 10.97855496 73 14 C73.86882812 14.27199219 74.73765625 14.54398437 75.6328125 14.82421875 C85.31697015 18.17876239 94.5883385 24.63490034 99.8203125 33.56640625 C104.00023448 42.18922543 106.82316258 51.3479628 105 61 C99.45836892 67.96286836 89.24489164 69.11220412 81 71 C80.195625 71.185625 79.39125 71.37125 78.5625 71.5625 C63.38246845 74.1542127 48.8612908 70.39085711 36.15698242 61.91650391 C18.00969527 48.96931658 4.62176545 29.9912091 0.26953125 7.9453125 C-0.09968064 5.2805658 -0.13760958 2.68338682 0 0 Z " fill="#1E1E1D" transform="translate(273,408)"/>
<path d="M0 0 C0.33 0.66 0.66 1.32 1 2 C-0.05277207 5.15831622 -0.64975486 5.81762951 -3 8 C-4.66978618 9.66363595 -6.3356654 11.3309237 -8 13 C-9.25634113 14.25667968 -10.51286411 15.51317757 -11.76953125 16.76953125 C-12.43017578 17.43017578 -13.09082031 18.09082031 -13.77148438 18.77148438 C-16.84765625 21.84765625 -19.92382812 24.92382812 -23 28 C-23.66 27.67 -24.32 27.34 -25 27 C-24.14277344 26.154375 -23.28554688 25.30875 -22.40234375 24.4375 C-16.37961088 18.4720007 -10.42758231 12.5219722 -5 6 C-4.49597656 5.40058594 -3.99195313 4.80117188 -3.47265625 4.18359375 C-2.30892824 2.79421211 -1.15335422 1.39800511 0 0 Z " fill="#DCDCDB" transform="translate(553,602)"/>
<path d="M0 0 C-0.350625 0.61875 -0.70125 1.2375 -1.0625 1.875 C-1.371875 2.57625 -1.68125 3.2775 -2 4 C-1.67 4.66 -1.34 5.32 -1 6 C-3.75 6.6875 -3.75 6.6875 -7 7 C-9.375 5.5625 -9.375 5.5625 -11 4 C-9.5437455 3.32880451 -8.08492133 2.66318193 -6.625 2 C-5.81289063 1.62875 -5.00078125 1.2575 -4.1640625 0.875 C-2 0 -2 0 0 0 Z " fill="#2E2E2D" transform="translate(675,344)"/>
<path d="M0 0 C-0.66 0 -1.32 0 -2 0 C-2 0.66 -2 1.32 -2 2 C-14.87 1.505 -14.87 1.505 -28 1 C-28 0.67 -28 0.34 -28 0 C-24.08375299 -0.19706355 -20.16699634 -0.38099159 -16.25 -0.5625 C-15.13882813 -0.61857422 -14.02765625 -0.67464844 -12.8828125 -0.73242188 C-11.81289063 -0.78076172 -10.74296875 -0.82910156 -9.640625 -0.87890625 C-8.65610352 -0.9260376 -7.67158203 -0.97316895 -6.65722656 -1.02172852 C-4.2293192 -1.00187518 -2.30838443 -0.71119313 0 0 Z " fill="#AEAEAC" transform="translate(703,540)"/>
<path d="M0 0 C0.92538169 3.70152678 1.08174162 4.63458162 0 8 C-1.175625 8.185625 -1.175625 8.185625 -2.375 8.375 C-5.14057822 8.79117993 -5.14057822 8.79117993 -7 11 C-7.33 10.01 -7.66 9.02 -8 8 C-5.36 5.36 -2.72 2.72 0 0 Z " fill="#282828" transform="translate(578,207)"/>
<path d="M0 0 C3.3 0.99 6.6 1.98 10 3 C9.01 3.495 9.01 3.495 8 4 C8 4.66 8 5.32 8 6 C6.68 6.33 5.36 6.66 4 7 C0 2.25 0 2.25 0 0 Z " fill="#3E3E3E" transform="translate(228,512)"/>
<path d="M0 0 C0.66 0.66 1.32 1.32 2 2 C0.68 3.32 -0.64 4.64 -2 6 C-1.67 6.66 -1.34 7.32 -1 8 C-4.75 11 -4.75 11 -7 11 C-5.5140084 6.40693504 -3.14985318 3.56430755 0 0 Z " fill="#373736" transform="translate(565,607)"/>
<path d="M0 0 C-0.33 0.66 -0.66 1.32 -1 2 C-1.20625 2.680625 -1.4125 3.36125 -1.625 4.0625 C-3 6 -3 6 -6.625 6.75 C-7.73875 6.8325 -8.8525 6.915 -10 7 C-9.09827532 5.82174642 -8.17798498 4.65768423 -7.25 3.5 C-6.73953125 2.8503125 -6.2290625 2.200625 -5.703125 1.53125 C-4 0 -4 0 0 0 Z " fill="#242423" transform="translate(569,220)"/>
<path d="M0 0 C0 2.31 0 4.62 0 7 C-0.86625 6.4740625 -0.86625 6.4740625 -1.75 5.9375 C-4.35801776 4.85082593 -5.39417629 5.06934867 -8 6 C-3.38461538 0 -3.38461538 0 0 0 Z " fill="#3D3D3D" transform="translate(601,512)"/>
<path d="M0 0 C0.14824219 0.62261719 0.29648437 1.24523437 0.44921875 1.88671875 C0.93460321 3.98821085 0.93460321 3.98821085 1.8125 5.8125 C2.12863415 9.5007317 -0.05764207 11.93931477 -2 15 C-3.31534494 11.34142468 -2.65468309 8.91973519 -1.5625 5.25 C-1.27503906 4.26515625 -0.98757813 3.2803125 -0.69140625 2.265625 C-0.46324219 1.51796875 -0.23507812 0.7703125 0 0 Z " fill="#3D3D3B" transform="translate(370,274)"/>
<path d="M0 0 C0.33 1.32 0.66 2.64 1 4 C-1.4375 6.75 -1.4375 6.75 -4 9 C-4.99 8.67 -5.98 8.34 -7 8 C-4.69 5.36 -2.38 2.72 0 0 Z " fill="#313131" transform="translate(554,231)"/>
<path d="M0 0 C4.31392226 0.4793247 6.16569547 1.7457985 9 5 C8.34 5 7.68 5 7 5 C6.67 5.66 6.34 6.32 6 7 C4.02 4.69 2.04 2.38 0 0 Z " fill="#30302F" transform="translate(266,560)"/>
<path d="M0 0 C1.2065625 0.0309375 1.2065625 0.0309375 2.4375 0.0625 C2.1075 2.0425 1.7775 4.0225 1.4375 6.0625 C-0.2125 4.4125 -1.8625 2.7625 -3.5625 1.0625 C-2.5625 0.0625 -2.5625 0.0625 0 0 Z " fill="#282826" transform="translate(283.5625,571.9375)"/>
<path d="M0 0 C0.99 0 1.98 0 3 0 C3 1.98 3 3.96 3 6 C1.68 6 0.36 6 -1 6 C-1.33 5.01 -1.66 4.02 -2 3 C-1.34 2.01 -0.68 1.02 0 0 Z " fill="#343434" transform="translate(447,422)"/>
<path d="M0 0 C0.33 1.32 0.66 2.64 1 4 C-0.9375 6.25 -0.9375 6.25 -3 8 C-3.99 7.67 -4.98 7.34 -6 7 C-4.02 4.69 -2.04 2.38 0 0 Z " fill="#353534" transform="translate(546,240)"/>
<path d="M0 0 C0.33 0 0.66 0 1 0 C0.67 2.31 0.34 4.62 0 7 C-0.66 7 -1.32 7 -2 7 C-2 7.99 -2 8.98 -2 10 C-2.66 10 -3.32 10 -4 10 C-2.8905928 6.51329166 -1.73662334 3.22515763 0 0 Z " fill="#C5C5C3" transform="translate(590,544)"/>
<path d="M0 0 C0.33 1.32 0.66 2.64 1 4 C-0.65 5.32 -2.3 6.64 -4 8 C-4.33 7.01 -4.66 6.02 -5 5 C-3.35 3.35 -1.7 1.7 0 0 Z " fill="#232323" transform="translate(639,466)"/>
<path d="M0 0 C0.33 1.32 0.66 2.64 1 4 C1.66 4 2.32 4 3 4 C3 6 3 6 1.625 7.5 C1.08875 7.995 0.5525 8.49 0 9 C-0.66 9.66 -1.32 10.32 -2 11 C-1.40049704 7.31733897 -0.75241109 3.65456815 0 0 Z " fill="#CDCDCD" transform="translate(728,330)"/>
<path d="M0 0 C0.99 0.33 1.98 0.66 3 1 C2.67 2.32 2.34 3.64 2 5 C0.68 5.33 -0.64 5.66 -2 6 C-1.49396008 3.83125748 -1.00016187 2.00032373 0 0 Z " fill="#252524" transform="translate(736,521)"/>
<path d="M0 0 C1.65 1.65 3.3 3.3 5 5 C2 6 2 6 0 6 C0 4.02 0 2.04 0 0 Z " fill="#333331" transform="translate(428,304)"/>
<path d="M0 0 C0.66 0 1.32 0 2 0 C1.44271087 3.34373475 0.64826111 6.03312999 -1 9 C-1.66 9 -2.32 9 -3 9 C-2.01 6.03 -1.02 3.06 0 0 Z " fill="#383838" transform="translate(382,243)"/>
<path d="M0 0 C0.99 0.33 1.98 0.66 3 1 C3.33 1.99 3.66 2.98 4 4 C2.35 4.33 0.7 4.66 -1 5 C-1.33 4.01 -1.66 3.02 -2 2 C-1.34 1.34 -0.68 0.68 0 0 Z " fill="#242424" transform="translate(540,248)"/>
</svg>
